<?xml version="1.0" encoding="utf-8"?>
<!-- Generator: Adobe Illustrator 25.3.1, SVG Export Plug-In . SVG Version: 6.00 Build 0)  -->
<svg version="1.1" id="Layer_1" xmlns="http://www.w3.org/2000/svg" xmlns:xlink="http://www.w3.org/1999/xlink" x="0px" y="0px"
	 viewBox="0 0 545 55" style="enable-background:new 0 0 545 55;" xml:space="preserve">
<style type="text/css">
	.st0{clip-path:url(#SVGID_2_);fill:url(#SVGID_3_);}
</style>
<g>
	<defs>
		<path id="SVGID_1_" d="M1,6.2v39.9h27.9v-6.6H8.6V6.2H1z M138.2,6.2v39.9h25.1v-6.7h-17.5V29.2h12.4v-6.6h-12.4v-9.8h16.6V6.2
			H138.2z M190.1,6.2v6.6h14v33.3h7.7V12.8h14V6.2H190.1z M243.7,12.9h4.3c4.4,0,6.7,2,6.7,5.6c0,3.6-3.5,6.2-7.7,6.2h-3.4V12.9z
			 M236.1,6.2v39.9h7.6V30.8h2l6.7,10.2c2.7,4.2,4.8,5.8,9,5.8c4.8,0,7-3.9,7.5-4.6l-2.7-2.7c-0.8,0.8-1.6,1.7-2.8,1.7
			c-1.5,0-2.5-0.8-3.5-2.5l-6.1-8.8c3.2-1.8,8.5-5.4,8.5-11.9c0-7.2-5.3-11.7-14.3-11.7H236.1z M278.6,46.1h7.6V6.2h-7.6V46.1z
			 M315.2,15.7l8.7,24.5h-17.3L315.2,15.7z M311.9,6.2l-15.4,39.9h37.4L318.5,6.2H311.9z M371,6.2V28L349.2,6.2h-5.1v39.9h7.6V18.4
			L371,37.6v8.4h7.6V6.2H371z M442.6,6.2v39.9h27.9v-6.6h-20.4V6.2H442.6z M480.7,6.2v39.9h25.1v-6.7h-17.5V29.2h12.4v-6.6h-12.4
			v-9.8h16.6V6.2H480.7z M100.4,11.8h17.3l-8.6,24.5L100.4,11.8z M90.4,6l15.4,39.9h6.5L127.8,6H90.4z M43.7,26.1
			c0-8,6.2-14.5,14.6-14.5c8.4,0,14.7,6.5,14.7,14.5c0,8-6.2,14.5-14.7,14.5C50,40.6,43.7,34.1,43.7,26.1 M35.9,26.1
			c0,11.7,9.6,21.1,22.4,21.1c12.9,0,22.5-9.5,22.5-21.1C80.8,14.5,71.3,5,58.3,5C45.5,5,35.9,14.5,35.9,26.1 M391.2,26.2
			c0,12.4,10.7,21.1,22.5,21.1c8.4,0,12.9-2.2,14.3-2.8V27h-7.6v12.8c-2.1,0.5-4.1,0.8-6.3,0.8c-7.9,0-14.6-6-14.6-14.4
			c0-8.5,7.1-14.5,15.2-14.5c4.8,0,9.1,1.5,13.3,3.6V7.7c-1.4-0.6-6.4-2.7-14.3-2.7C401.8,5,391.2,13.8,391.2,26.2 M517.1,15.9
			c0,6.1,4.1,8.8,8.1,11.4l6.5,3.9c2.1,1.3,4.1,2.8,4.1,4.8c0,2.2-2.2,4.5-6.9,4.5c-4.9,0-10.5-3.1-12.3-4v7.4
			c1.8,0.8,6.2,3.4,12.4,3.4c7.9,0,14.3-4.2,14.3-11.5c0-6.1-5.1-9.3-8-11.1l-6.5-4c-2.1-1.3-4.2-2.7-4.2-4.8c0-2.1,1.9-4.2,5.5-4.2
			c4.4,0,9.2,2.2,10.9,3V7.6C539.8,7,535.8,5,530.1,5C523.1,5,517.1,8.9,517.1,15.9"/>
	</defs>
	<clipPath id="SVGID_2_">
		<use xlink:href="#SVGID_1_"  style="overflow:visible;"/>
	</clipPath>
	
		<linearGradient id="SVGID_3_" gradientUnits="userSpaceOnUse" x1="-687.0634" y1="567.3146" x2="-684.5579" y2="567.3146" gradientTransform="matrix(219.5505 0 0 -219.5505 150838.3594 124580.3281)">
		<stop  offset="0" style="stop-color:#8B9290"/>
		<stop  offset="0.2666" style="stop-color:#8E9593"/>
		<stop  offset="0.4739" style="stop-color:#979E9D"/>
		<stop  offset="0.6612" style="stop-color:#A7AEAD"/>
		<stop  offset="0.8356" style="stop-color:#BDC5C5"/>
		<stop  offset="1" style="stop-color:#D9E1E2"/>
	</linearGradient>
	<rect x="1" y="5" class="st0" width="542.3" height="42.3"/>
</g>
</svg>
