<?xml version="1.0" encoding="utf-8"?>
<!-- Generator: Adobe Illustrator 25.3.1, SVG Export Plug-In . SVG Version: 6.00 Build 0)  -->
<svg version="1.1" id="Layer_1" xmlns="http://www.w3.org/2000/svg" xmlns:xlink="http://www.w3.org/1999/xlink" x="0px" y="0px"
	 viewBox="0 0 57 57" style="enable-background:new 0 0 57 57;" xml:space="preserve">
<style type="text/css">
	.st0{clip-path:url(#SVGID_2_);fill:url(#SVGID_3_);}
</style>
<g>
	<defs>
		<path id="SVGID_1_" d="M28.5,38.4l3.3,5.7h-6.6L28.5,38.4z M21.5,46.2h13.9l-6.9-12L21.5,46.2z M41.2,25.2l-18.5,3.3l-2.4-1.7
			l-2.9,0.5l2.4,1.7l-1.5,0.3l-2.4-1.7L13,28l2.4,1.7L13.8,30l-2.4-1.7l-2.9,0.5l3.6,2.5L9.5,35l2.9-0.5l1.7-2.4l1.6-0.3L14,34.2
			l2.9-0.5l1.7-2.4l1.5-0.3l-1.7,2.4l2.9-0.5l1.7-2.4l18.6-3.3l-0.5,2.2l6.7-4.4L40,23.3L41.2,25.2z M26.8,14.8h-5.3l4.3,3.1
			L24.2,23l0.7-0.5l0,0l0,0l3.6-2.6l4.3,3.1l-1.7-5.1l4.3-3.1h-5.3l-1.6-5L26.8,14.8z M5.5,28.5c0-12.7,10.3-23,23-23s23,10.3,23,23
			c0,12.7-10.3,23-23,23S5.5,41.2,5.5,28.5 M28.5,1L28.5,1l-1.6,2.8l-2-2.6l-1.2,3l-2.3-2.3l-0.8,3.1l-2.6-2l-0.4,3.3l-2.8-1.6V8
			l-2.9-1.2l0.4,3.1L9,9.1l0.8,3.1l-3.2-0.4l1.2,2.9l-3.2,0l1.6,2.8l-3.1,0.4l2,2.6L2,21.2l2.3,2.3l-3.1,1.3l2.6,2L1,28.5l0,0h0
			l2.9,1.7l-2.6,2l3.1,1.3L2,35.8l3.2,0.9l-2,2.6l3.1,0.4l-1.6,2.8l3.2,0l-1.2,2.9l3.2-0.4L9,47.9l3.1-0.8l-0.4,3.1l2.9-1.2v3.3
			l2.8-1.6l0.4,3.3l2.6-2l0.8,3.1l2.3-2.3l1.2,3l2-2.6l1.6,2.8l0,0l0,0l1.6-2.8l2,2.6l1.2-3l2.3,2.3l0.8-3.1l2.6,2l0.4-3.3l2.8,1.6
			V49l2.9,1.2l-0.4-3.1l3.1,0.8l-0.8-3.1l3.2,0.4l-1.2-2.9l3.2,0l-1.6-2.8l3.1-0.4l-2-2.6l3.2-0.9l-2.3-2.3l3.1-1.3l-2.6-2l2.9-1.7
			h0l0,0l-2.9-1.7l2.6-2l-3.1-1.3l2.3-2.3l-3.2-0.9l2-2.6l-3.1-0.4l1.6-2.8l-3.2,0l1.2-2.9l-3.2,0.4L48,9.1l-3.1,0.8l0.4-3.1L42.4,8
			V4.7l-2.8,1.6l-0.4-3.3l-2.6,2l-0.8-3.1l-2.3,2.3l-1.2-3l-2,2.6L28.5,1L28.5,1z"/>
	</defs>
	<clipPath id="SVGID_2_">
		<use xlink:href="#SVGID_1_"  style="overflow:visible;"/>
	</clipPath>
	
		<linearGradient id="SVGID_3_" gradientUnits="userSpaceOnUse" x1="-919.1027" y1="563.1533" x2="-917.4424" y2="563.1533" gradientTransform="matrix(33.1259 0 0 -33.1259 30447.1504 18683.4863)">
		<stop  offset="0" style="stop-color:#8B9290"/>
		<stop  offset="0.2666" style="stop-color:#8E9593"/>
		<stop  offset="0.4739" style="stop-color:#979E9D"/>
		<stop  offset="0.6612" style="stop-color:#A7AEAD"/>
		<stop  offset="0.8356" style="stop-color:#BDC5C5"/>
		<stop  offset="1" style="stop-color:#D9E1E2"/>
	</linearGradient>
	<rect x="1" y="1" class="st0" width="55" height="55"/>
</g>
</svg>
