<svg xmlns="http://www.w3.org/2000/svg" viewBox="0 0 348.02 90.8"><defs><style>.cls-1{fill:#5952ff;}</style></defs><g id="Layer_2" data-name="Layer 2"><g id="Layer_1-2" data-name="Layer 1"><circle class="cls-1" cx="6.48" cy="33.71" r="6.48"/><circle class="cls-1" cx="20.41" cy="14.16" r="6.48"/><circle class="cls-1" cx="43.69" cy="6.48" r="6.48"/><circle class="cls-1" cx="66.94" cy="14.24" r="6.48"/><circle class="cls-1" cx="80.8" cy="33.83" r="6.48"/><path class="cls-1" d="M43.62,38.93a6.48,6.48,0,1,1-6.48,6.48,6.48,6.48,0,0,1,6.48-6.48m0-12.93A19.41,19.41,0,1,0,63,45.41,19.44,19.44,0,0,0,43.62,26Z"/><path class="cls-1" d="M43.62,90.8A45.2,45.2,0,0,1,.63,60a1,1,0,0,1,.66-1.27l10.43-3.29A1,1,0,0,1,13,56.1a32.48,32.48,0,0,0,61.33,0,1,1,0,0,1,1.24-.63L86,58.75A1,1,0,0,1,86.61,60,45.2,45.2,0,0,1,43.62,90.8Z"/><path class="cls-1" d="M274.6,41.53v18.1c0,4.39,3.78,4.8,10.53,4.39V77.93c-20,2-25.87-4-25.87-18.3V17.09l15.34-4.61V26.8h10.53V41.53Z"/><path class="cls-1" d="M124.6,40c0,1,.88,1.88,2.63,2.53s3.88,1.31,6.35,2A58.82,58.82,0,0,1,141,47.05a15.16,15.16,0,0,1,6.35,5.11A14.62,14.62,0,0,1,150,61.1q0,8.35-6.19,12.65T128.52,78q-16.31,0-22.2-12.29l13.43-7.64q2.06,6.09,8.77,6.09c3.72,0,5.58-1.06,5.58-3.2,0-1-.88-1.89-2.63-2.58a57.61,57.61,0,0,0-6.35-2,54.76,54.76,0,0,1-7.44-2.58,16,16,0,0,1-6.35-5,13.3,13.3,0,0,1-2.63-8.37q0-8,5.83-12.49a23.1,23.1,0,0,1,14.41-4.44,24.22,24.22,0,0,1,11.67,2.84,21.71,21.71,0,0,1,8.46,8.21l-13.21,7.12c-1.66-3-4-4.54-6.92-4.54S124.6,38.11,124.6,40Z"/><path class="cls-1" d="M173.07,57q2.69,7.23,12.39,7.22,6.3,0,9.91-3.92l12.39,7.13Q200.13,78,185.25,78q-13,0-20.81-7.74t-7.79-19.52a26.58,26.58,0,0,1,7.69-19.46q7.69-7.8,19.78-7.8a24.9,24.9,0,0,1,18.74,7.8q7.48,7.8,7.48,19.46a29.16,29.16,0,0,1-.62,6.2Zm-.31-11.57H195q-2.28-8.16-11-8.16Q175,37.24,172.76,45.4Z"/><path class="cls-1" d="M234.61,34.15a12.66,12.66,0,0,1,5.83-7.59,18.41,18.41,0,0,1,9.66-2.64V41.48a15.54,15.54,0,0,0-10.59,1.91q-4.9,2.84-4.9,9.86V76.59H219.12V25h15.49Z"/><path class="cls-1" d="M340.07,70.13a27.37,27.37,0,0,1-46.78-19.36,27.37,27.37,0,1,1,54.73,0A26.23,26.23,0,0,1,340.07,70.13ZM312.19,59.55a12.21,12.21,0,0,0,16.93,0,11.89,11.89,0,0,0,3.41-8.78A11.91,11.91,0,0,0,329.12,42a12.24,12.24,0,0,0-16.93,0,11.91,11.91,0,0,0-3.41,8.78A11.89,11.89,0,0,0,312.19,59.55Z"/></g></g></svg>