<?xml version="1.0" encoding="UTF-8"?>
<svg width="19px" height="20px" viewBox="0 0 19 20" version="1.1" xmlns="http://www.w3.org/2000/svg" xmlns:xlink="http://www.w3.org/1999/xlink">
    <!-- Generator: Sketch 55.2 (78181) - https://sketchapp.com -->
    <title>icon</title>
    <desc>Created with Sketch.</desc>
    <g id="Symbols" stroke="none" stroke-width="1" fill="none" fill-rule="evenodd" stroke-linejoin="bevel">
        <g id="Final-Icon---12x12px" transform="translate(-1.000000, -2.000000)" fill="#000000" fill-rule="nonzero" stroke="#000000" stroke-width="1.1">
            <path d="M18,7.58221681 C18,7.58221681 18,7.58221681 18,7.58221681 C18,7.53836784 17.9789326,7.51644336 17.9789326,7.49451888 C17.9789326,7.49451888 17.9789326,7.49451888 17.9789326,7.49451888 C17.9789326,7.49451888 17.9789326,7.49451888 17.9789326,7.49451888 C17.9578652,7.4725944 17.9578652,7.45066991 17.9367978,7.42874543 C17.9367978,7.42874543 17.9367978,7.42874543 17.9157303,7.40682095 C17.9157303,7.40682095 17.9157303,7.40682095 17.8946629,7.40682095 L10.6053371,3.02192448 C10.5842697,3.02192448 10.5632022,3 10.5632022,3 C10.5632022,3 10.5632022,3 10.5632022,3 C10.5632022,3 10.5421348,3 10.5421348,3 C10.5421348,3 10.5210674,3 10.5210674,3 C10.5,3 10.5,3 10.4789326,3 C10.4789326,3 10.4578652,3 10.4578652,3 C10.4578652,3 10.4367978,3 10.4367978,3 C10.4367978,3 10.4367978,3 10.4367978,3 C10.4157303,3 10.3946629,3.02192448 10.3946629,3.02192448 L3.10533708,7.40682095 C3.10533708,7.40682095 3.10533708,7.40682095 3.08426966,7.40682095 C3.08426966,7.40682095 3.08426966,7.40682095 3.06320225,7.42874543 C3.04213483,7.45066991 3.02106742,7.4725944 3.02106742,7.49451888 C3.02106742,7.49451888 3.02106742,7.49451888 3.02106742,7.49451888 C3.02106742,7.49451888 3.02106742,7.49451888 3.02106742,7.49451888 C3,7.51644336 3,7.53836784 3,7.56029233 C3,7.56029233 3,7.58221681 3,7.58221681 C3,7.58221681 3,7.60414129 3,7.60414129 L3,16.3739342 C3,16.3958587 3,16.4177832 3,16.4397077 C3,16.4397077 3,16.4397077 3,16.4397077 C3,16.4397077 3,16.4616322 3,16.4616322 C3,16.4616322 3,16.4835566 3,16.4835566 C3,16.4835566 3,16.5054811 3.02106742,16.5054811 C3.02106742,16.5054811 3.02106742,16.5054811 3.04213483,16.5274056 C3.04213483,16.5274056 3.04213483,16.5493301 3.06320225,16.5493301 C3.06320225,16.5493301 3.06320225,16.5493301 3.06320225,16.5493301 C3.08426966,16.5712546 3.08426966,16.5712546 3.10533708,16.593179 L10.3946629,20.9780755 C10.3946629,20.9780755 10.3946629,20.9780755 10.4157303,20.9780755 C10.4157303,20.9780755 10.4367978,20.9780755 10.4367978,20.9780755 C10.4578652,20.9780755 10.4789326,21 10.5,21 C10.5210674,21 10.5421348,21 10.5632022,20.9780755 C10.5632022,20.9780755 10.5842697,20.9780755 10.5842697,20.9780755 C10.5842697,20.9780755 10.6053371,20.9780755 10.6053371,20.9780755 L17.8946629,16.593179 C17.9157303,16.593179 17.9157303,16.5712546 17.9367978,16.5493301 C17.9367978,16.5493301 17.9367978,16.5493301 17.9367978,16.5493301 C17.9367978,16.5493301 17.9367978,16.5493301 17.9578652,16.5274056 C17.9578652,16.5274056 17.9578652,16.5274056 17.9789326,16.5054811 C17.9789326,16.5054811 18,16.4835566 18,16.4835566 C18,16.4835566 18,16.4616322 18,16.4616322 C18,16.4616322 18,16.4397077 18,16.4397077 C18,16.4397077 18,16.4397077 18,16.4397077 C18,16.4177832 18,16.3958587 18,16.3739342 L18,7.58221681 C18,7.60414129 18,7.60414129 18,7.58221681 Z M17.3679775,7.60414129 L14.2289326,9.48964677 L11.0688202,3.83313033 L17.3679775,7.60414129 Z M10.5,3.65773447 L13.7865169,9.5773447 L7.21348315,9.5773447 L10.5,3.65773447 Z M9.93117978,3.83313033 L6.77106742,9.48964677 L3.63202247,7.60414129 L9.93117978,3.83313033 Z M3.42134831,7.99878197 L6.56039326,9.88428745 L3.42134831,15.5408039 L3.42134831,7.99878197 Z M6.85533708,10.2350792 L10.1418539,16.1546894 L3.56882022,16.1546894 L6.85533708,10.2350792 Z M10.2893258,20.36419 L3.99016854,16.593179 L10.2893258,16.593179 L10.2893258,20.36419 Z M10.5,15.9354446 L7.21348315,10.0158343 L13.7654494,10.0158343 L10.5,15.9354446 Z M10.7106742,20.36419 L10.7106742,16.593179 L17.0098315,16.593179 L10.7106742,20.36419 Z M10.8581461,16.1546894 L14.1446629,10.2350792 L17.4311798,16.1546894 L10.8581461,16.1546894 Z M17.5786517,15.5408039 L14.4396067,9.88428745 L17.5786517,7.99878197 L17.5786517,15.5408039 L17.5786517,15.5408039 Z" id="icon" transform="translate(10.500000, 12.000000) rotate(15.000000) translate(-10.500000, -12.000000) "></path>
        </g>
    </g>
</svg>